HIERARCHY
ROOT Hips
{
	OFFSET 0.00000 0.00000 0.00000
	CHANNELS 6 Xposition Yposition Zposition Zrotation Yrotation Xrotation 
	JOINT LHipJoint
	{
		OFFSET 0 0 0
		CHANNELS 3 Zrotation Yrotation Xrotation
		JOINT LeftUpLeg
		{
			OFFSET 1.53139 -1.83434 0.76626
			CHANNELS 3 Zrotation Yrotation Xrotation
			JOINT LeftLeg
			{
				OFFSET 2.56112 -7.03663 0.00000
				CHANNELS 3 Zrotation Yrotation Xrotation
				JOINT LeftFoot
				{
					OFFSET 2.59983 -7.14299 0.00000
					CHANNELS 3 Zrotation Yrotation Xrotation
					JOINT LeftToeBase
					{
						OFFSET 0.13742 -0.37757 2.00054
						CHANNELS 3 Zrotation Yrotation Xrotation
						End Site
						{
							OFFSET 0.00000 -0.00000 1.02897
						}
					}
				}
			}
		}
	}
	JOINT RHipJoint
	{
		OFFSET 0 0 0
		CHANNELS 3 Zrotation Yrotation Xrotation
		JOINT RightUpLeg
		{
			OFFSET -1.40122 -1.83435 0.76627
			CHANNELS 3 Zrotation Yrotation Xrotation
			JOINT RightLeg
			{
				OFFSET -2.54052 -6.98003 0.00000
				CHANNELS 3 Zrotation Yrotation Xrotation
				JOINT RightFoot
				{
					OFFSET -2.63179 -7.23079 0.00000
					CHANNELS 3 Zrotation Yrotation Xrotation
					JOINT RightToeBase
					{
						OFFSET -0.24131 -0.66299 2.03908
						CHANNELS 3 Zrotation Yrotation Xrotation
						End Site
						{
							OFFSET -0.00000 -0.00000 1.07391
						}
					}
				}
			}
		}
	}
	JOINT LowerBack
	{
		OFFSET 0 0 0
		CHANNELS 3 Zrotation Yrotation Xrotation
		JOINT Spine
		{
			OFFSET 0.01174 2.10302 -0.29778
			CHANNELS 3 Zrotation Yrotation Xrotation
			JOINT Spine1
			{
				OFFSET 0.00772 2.13227 -0.01247
				CHANNELS 3 Zrotation Yrotation Xrotation
				JOINT Neck
				{
					OFFSET 0 0 0
					CHANNELS 3 Zrotation Yrotation Xrotation
					JOINT Neck1
					{
						OFFSET -0.09219 1.60848 0.31481
						CHANNELS 3 Zrotation Yrotation Xrotation
						JOINT Head
						{
							OFFSET 0.13974 1.65456 -0.31134
							CHANNELS 3 Zrotation Yrotation Xrotation
							End Site
							{
								OFFSET 0.04742 1.69515 -0.14578
							}
						}
					}
				}
				JOINT LeftShoulder
				{
					OFFSET 0 0 0
					CHANNELS 3 Zrotation Yrotation Xrotation
					JOINT LeftArm
					{
						OFFSET 3.24909 1.02882 -0.23993
						CHANNELS 3 Zrotation Yrotation Xrotation
						JOINT LeftForeArm
						{
							OFFSET 5.32955 -0.00000 -0.00000
							CHANNELS 3 Zrotation Yrotation Xrotation
							JOINT LeftHand
							{
								OFFSET 3.69232 -0.00000 -0.00000
								CHANNELS 3 Zrotation Yrotation Xrotation
								JOINT LeftFingerBase
								{
									OFFSET 0 0 0
									CHANNELS 3 Zrotation Yrotation Xrotation
									JOINT LeftHandIndex1
									{
										OFFSET 0.53660 -0.00000 -0.00000
										CHANNELS 3 Zrotation Yrotation Xrotation
										End Site
										{
											OFFSET 0.43262 -0.00000 -0.00000
										}
									}
								}
								JOINT LThumb
								{
									OFFSET 0 0 0
									CHANNELS 3 Zrotation Yrotation Xrotation
									End Site
									{
										OFFSET 0.43922 -0.00000 0.43922
									}
								}
							}
						}
					}
				}
				JOINT RightShoulder
				{
					OFFSET 0 0 0
					CHANNELS 3 Zrotation Yrotation Xrotation
					JOINT RightArm
					{
						OFFSET -3.21387 0.93002 -0.34594
						CHANNELS 3 Zrotation Yrotation Xrotation
						JOINT RightForeArm
						{
							OFFSET -5.23431 -0.00000 0.00000
							CHANNELS 3 Zrotation Yrotation Xrotation
							JOINT RightHand
							{
								OFFSET -3.55301 -0.00000 -0.00000
								CHANNELS 3 Zrotation Yrotation Xrotation
								JOINT RightFingerBase
								{
									OFFSET 0 0 0
									CHANNELS 3 Zrotation Yrotation Xrotation
									JOINT RightHandIndex1
									{
										OFFSET -0.77252 -0.00000 -0.00000
										CHANNELS 3 Zrotation Yrotation Xrotation
										End Site
										{
											OFFSET -0.62283 -0.00000 -0.00000
										}
									}
								}
								JOINT RThumb
								{
									OFFSET 0 0 0
									CHANNELS 3 Zrotation Yrotation Xrotation
									End Site
									{
										OFFSET -0.63234 -0.00000 0.63234
									}
								}
							}
						}
					}
				}
			}
		}
	}
}
MOTION
Frames: 7
Frame Time: 0.285714
0.00 0.00 0.00 0 0 0 0 0 0 -21 0 0 0 0 0 0 0 0 0 0 0 0 0 0 21 0 0 0 0 0 0 0 0 0 0 0 0 0 0 0 0 0 0 0 0 0 0 -16 0 0 21 0 0 11 0 0 0 -8 0 0 0 0 0 0 0 0 0 0 0 0 0 0 0 0 0 0 0 0 8 0 0 0 0 0 0 0 0 0 0 0 0 0 0 0 0 0
0.00 0.00 0.00 6.4836 54.0232 6.9702 0.0000 0.0000 0.0000 -7.4359 -8.2063 -5.5980 1.3639 7.3919 20.8816 -0.0005 -0.5645 -0.2186 0.0238 -0.9969 -2.7403 0.0000 0.0000 0.0000 14.5280 0.9769 -4.1695 -1.4198 -7.5354 21.3114 -0.5895 -3.2033 -16.0209 -0.1802 2.7343 -7.5399 -0.1174 0.3904 9.5238 -0.9996 0.4633 0.0413 -1.0412 0.2232 -5.2953 -13.0885 -6.1785 -20.0493 7.2412 -6.4663 29.3718 3.9942 -3.2067 14.1076 0.0000 0.0000 0.0000 -87.0294 5.1199 25.3016 21.6537 -32.5834 -6.3983 -0.0000 -0.0000 2.8559 23.0269 23.7223 9.7032 -7.1250 0.0000 -0.0000 -6.7129 55.3779 -1.7158 0.0000 0.0000 0.0000 85.8286 -2.3349 11.2531 -18.2285 28.4488 -4.6576 0.0000 0.0000 3.5221 -15.7829 7.0402 -1.9841 7.1250 -0.0000 -0.0000 8.0494 -22.6870 4.3639
0.00 0.00 0.00 7.5168 58.5598 4.8731 0.0000 0.0000 0.0000 -21.0501 -5.7302 -2.2733 0.8224 5.7861 16.1649 -0.4657 -15.0361 -4.1880 0.0568 -1.5372 -4.2284 0.0000 0.0000 0.0000 7.9115 1.2556 -12.2733 -5.9388 -14.3687 44.7354 -0.4758 -8.2862 -18.6004 -0.9891 -6.3299 17.7446 -3.2435 0.1215 12.1048 0.3744 -0.2101 1.4291 2.2573 -0.0171 -5.2754 -13.7910 -6.1257 -20.1168 6.7163 -5.9213 28.8490 3.9805 -3.1095 13.8416 0.0000 0.0000 0.0000 -83.9731 0.3711 26.9465 21.4462 -32.3455 -6.2870 -0.0000 0.0000 -0.4719 22.1374 24.6308 9.6229 -7.1250 0.0000 -0.0000 -8.0157 56.1344 -2.1991 0.0000 0.0000 0.0000 86.7397 -4.7345 6.3179 -16.8566 26.6683 -4.0228 0.0000 0.0000 9.7040 -15.4913 9.9308 -2.7366 7.1250 -0.0000 -0.0000 8.1818 -19.7351 4.9891
0.00 0.00 0.00 7.5789 45.8861 3.7139 0.0000 0.0000 0.0000 -24.2562 -4.3978 -5.1799 1.6763 8.1565 23.1905 0.1723 -11.3206 -10.2652 0.1647 -2.6146 -7.2075 0.0000 0.0000 0.0000 17.1672 -7.1421 -18.2502 -7.3215 -15.5967 50.0799 -0.3551 16.4074 -14.8401 -1.3312 7.3062 -20.6258 -2.0604 2.0336 11.5513 -0.6389 2.4018 0.1994 0.0839 1.2352 -6.3312 -7.3472 5.7181 -21.6810 1.2803 12.6254 39.6113 4.5566 4.3902 17.8271 0.0000 -0.0000 0.0000 -81.6832 -1.2186 19.6169 17.8685 -27.9884 -4.4873 -0.0000 -0.0000 0.9567 24.2640 22.8471 9.9272 -7.1250 0.0000 -0.0000 -5.0995 54.7120 -1.2190 0.0000 -0.0000 0.0000 86.7726 -8.1031 12.1094 -21.2023 32.0637 -6.1570 0.0000 0.0000 7.6129 -14.6111 10.3187 -2.6735 7.1250 -0.0000 -0.0000 8.7975 -19.3890 5.4421
0.00 0.00 0.00 3.6375 44.5380 1.1071 0.0000 0.0000 0.0000 -20.5813 -7.1270 -13.9472 4.3330 12.5909 37.8556 -1.1892 -25.3276 -8.8284 1.4136 -7.5197 -21.2644 0.0000 0.0000 0.0000 20.5642 -2.6346 -7.9061 -3.4323 -11.3640 33.5176 -1.3764 1.8852 -21.6465 -0.1641 2.6102 -7.1954 3.5695 2.8071 11.7215 -0.4629 4.1917 0.4353 -3.1785 1.9617 -5.8191 -7.9407 5.6880 -20.4059 0.5261 13.3444 40.5890 4.4526 4.4849 18.0894 -0.0000 -0.0000 0.0000 -86.1358 0.2646 14.4094 17.1361 -27.0368 -4.1490 -0.0000 -0.0000 2.2302 26.0471 22.4878 10.5887 -7.1250 0.0000 -0.0000 -3.1065 54.6915 -0.7401 -0.0000 -0.0000 0.0000 81.9580 -7.0771 9.7124 -17.9501 28.0932 -4.5257 0.0000 0.0000 5.9115 -14.9320 8.7810 -2.3313 7.1250 -0.0000 -0.0000 8.6088 -20.9406 5.0194
0.00 0.00 0.00 1.0189 0.3824 -358.3990 0.0000 0.0000 0.0000 -6.9375 -17.9377 -6.6488 0.7696 5.6017 15.6329 -2.2691 -25.5452 8.4815 0.0248 -1.0166 -2.7944 0.0000 0.0000 0.0000 14.2227 5.7658 -7.4443 -2.2369 -9.3431 26.8744 -0.7219 13.0530 -16.5379 -0.0165 0.8292 -2.2790 3.1269 4.0610 12.5653 0.0702 5.8606 -0.1510 -2.7354 2.7527 -6.8872 -10.4101 -2.2695 -21.1929 5.1871 -1.0862 33.7174 3.8307 -1.0240 15.5493 -0.0000 0.0000 0.0000 -88.8707 5.3033 13.3597 15.2924 -24.5519 -3.3465 -0.0000 -0.0000 8.3210 18.3030 21.3061 6.8534 -7.1250 0.0000 -0.0000 -10.6094 52.0051 -1.8470 -0.0000 0.0000 0.0000 83.2862 -3.7243 9.4582 -20.0998 30.7624 -5.5823 0.0000 0.0000 4.8589 -17.8241 7.4395 -2.3839 7.1250 -0.0000 -0.0000 6.5492 -22.1869 3.6142
0.00 0.00 0.00 172.4950 -53.2112 -898.4750 0.0000 0.0000 0.0000 -16.2881 -3.1753 1.6623 0.3729 3.9224 10.8584 -0.0309 -4.5325 -1.8541 0.8059 -5.7292 -16.0008 0.0000 0.0000 0.0000 2.9230 6.8993 3.2840 -3.8566 -11.9670 35.6155 1.2708 -19.4780 -7.0251 -0.4826 -4.4546 12.3594 0.7638 1.7643 12.2591 0.6257 2.4171 0.9256 -0.1839 1.1442 -5.8968 -10.7889 -1.3482 -19.9918 3.9412 -0.6362 34.0447 3.3102 -1.5614 15.3610 0.0000 -0.0000 0.0000 -88.0508 5.1348 24.4079 16.7320 -26.5031 -3.9670 -0.0000 -0.0000 5.1760 19.5591 20.1362 6.9730 -7.1250 0.0000 -0.0000 -8.9588 51.0260 -1.3392 0.0000 -0.0000 0.0000 83.1067 -6.5671 5.8159 -19.9602 30.5944 -5.5111 0.0000 0.0000 4.2896 -19.6571 9.7034 -3.4454 7.1250 -0.0000 -0.0000 5.2171 -19.7102 3.1649
